<svg xmlns="http://www.w3.org/2000/svg" viewBox="0 0 368.61 143.01"><defs><style>.cls-1{fill:#fff;}</style></defs><title>Ativo 8</title><g id="Camada_2" data-name="Camada 2"><g id="Camada_1-2" data-name="Camada 1"><g id="Logo"><g id="Textos"><path class="cls-1" d="M25.78,76.31q-8.45,10.89-10.28,19t4.56,11.92q6.39,3.84,23.8-.18,1.81-.45-4.48,6-4.47,4.59-5.64,4.59a40.63,40.63,0,0,1-20.23-5.22Q4.22,107.15,1,98.43T5.06,78.49Q15.17,63.7,41.87,53.39a156.82,156.82,0,0,1,57-10.32q21.23,0,31.51,7.28t3.81,21.26q-4.64,10.08-17.41,18.16a93.76,93.76,0,0,1-28.69,11.87q13.94.8,21.23,5t3.32,13.06q-2.49,5.4-9,9.69a49,49,0,0,1-14.18,6.42,91.55,91.55,0,0,1-16.08,2.86,39.92,39.92,0,0,1-14.68-1.09A18.8,18.8,0,0,1,48,130.17q-4.3-5.83-1-14.55,2.16-6.2,13.27-32.55T73.54,50.41q.17-.34,6.39.17a69.54,69.54,0,0,1,11.94,2c3.81,1,5.39,2.21,4.72,3.66q-.16.24-2.82,5T87.06,73.67Q83,81.25,79.51,88.46q-4,8.13-6.13,13.18a47.08,47.08,0,0,0,24.21-10,51,51,0,0,0,16.08-20.06Q119.31,58.43,115,53T95.6,47.54q-26.37,0-42.7,7.39A70.35,70.35,0,0,0,25.78,76.31Zm66.33,43.43c1.44-3.36,1.85-6.07,1.25-8.13a6.05,6.05,0,0,0-4.15-4.19,31.34,31.34,0,0,0-8-1.37,59.09,59.09,0,0,0-10,.29,108.44,108.44,0,0,0-5.14,13.75,40.59,40.59,0,0,1-1.49,4.52c-.67,1.72-1.19,3.12-1.58,4.19A22.72,22.72,0,0,0,62.1,132a2.85,2.85,0,0,0,.25,2.35,3,3,0,0,0,2.24.86,32.22,32.22,0,0,0,15.92-3.44A23,23,0,0,0,92.11,119.74Z"/><path class="cls-1" d="M116.32,109.43q1.5-3.33,3.4-8C121,98.28,122,96,122.63,94.53l.82-2.06a38.71,38.71,0,0,1,7.55.4,50.66,50.66,0,0,1,9.29,2c2.82.92,4,1.92,3.56,3L143.19,99c-.44.69-.94,1.47-1.49,2.35s-1.22,2.08-2,3.61-1.55,3.13-2.33,4.81a60,60,0,0,0-2.32,6c-.77,2.33-1.44,4.68-2,7q-1.65,7.34,0,7.33a4.38,4.38,0,0,0,2.32-.8q5.15-2.75,15.92-16.85c1.77-2.36,2.88-3.55,3.32-3.55s.5.54.5,1.38c0,1.14-.78,2.67-2.32,4.58q-9.47,11.46-15.76,16.16-9.12,7-15.25,5.27a10.31,10.31,0,0,1-5.64-4.07q-2.32-3.15-2.82-8.94T116.32,109.43Z"/><path class="cls-1" d="M156.79,85.9q-1.66,3.09-7.55,4.29A25.86,25.86,0,0,1,137.72,90a18.42,18.42,0,0,1-7.8-4q-3-2.7-1.32-5.67t7.29-4.13a27.84,27.84,0,0,1,11.78,0,15.06,15.06,0,0,1,7.87,3.67C157.48,81.77,157.89,83.76,156.79,85.9Z"/><path class="cls-1" d="M231.08,12.59q14.25-1.15,24,6.24t5.8,17.94q-5.31,13.75-25,23.89T191.44,70.92H185.8q-4.8,10.55-8.45,19.14,9.12-11.91,16.41-11.92a14.56,14.56,0,0,1,11,4.47,17.83,17.83,0,0,1,4.89,11.18,30.17,30.17,0,0,1-2.74,14.49q-4.31,9.18-15,16.51A71.64,71.64,0,0,1,170.3,135.1q-10.86,3-17.33,1.38a10.46,10.46,0,0,1-7.21-6.19q-2.25-4.93.41-14.67,9.62-27.16,18.74-45a158.39,158.39,0,0,0-18.9-.4,64.71,64.71,0,0,0-16.09,3.38c-.33.08-1.16-.29-2.49-1.09a31.59,31.59,0,0,1-8-7.11,5.45,5.45,0,0,1-1.41-4c.17-1.26,1.25-2.19,3.24-2.81a34.4,34.4,0,0,1,7.79-1.2,49.25,49.25,0,0,1,9.12.57q5,.75,9,1.67l10.45,2.35q6.38,1.43,10.53,2.23,13.59-25.09,28.85-37.53A61,61,0,0,1,231.08,12.59ZM188.46,85.13q-3.48,0-8.79,7.17a115.22,115.22,0,0,0-10.45,17.59l-4,10.2c-.77,2.14-1.38,3.89-1.82,5.27a17.74,17.74,0,0,0-.83,3.84,3.25,3.25,0,0,0,.58,2.58,3.17,3.17,0,0,0,2.4.8q4.65,0,10.12-6t10.78-18.28a96.2,96.2,0,0,0,3.65-9.22,41.29,41.29,0,0,0,1.74-7.28,9.06,9.06,0,0,0-.42-4.93A3,3,0,0,0,188.46,85.13Zm39.13-68.19q-8.29.91-17.74,12.27T187.79,66.68q1.67.12,5,.12,18.57-.12,32.42-8.83t16.66-20.4Q244.34,27.94,240,22T227.59,16.94Z"/><path class="cls-1" d="M206.53,115.16q2.33-5.39,7.3-15.82t5.47-11.46l.83-2.06a38.62,38.62,0,0,1,7.54.4,49.83,49.83,0,0,1,9.29,2c2.82.91,4,1.91,3.57,3l-1,1.6c-.55,1-1.24,2.2-2.07,3.61s-1.77,3.1-2.82,5-2.16,4-3.32,6.3-2.24,4.54-3.23,6.87-2,4.72-2.9,7.17a45.48,45.48,0,0,0-2.08,6.76c-1.32,5.5-1.49,8.29-.49,8.37.55,0,1.54-.62,3-1.84q6-5.26,19.24-22.58c1.76-2.36,2.87-3.55,3.31-3.55s.5.54.5,1.38c0,1.07-.83,2.59-2.49,4.58q-13.26,16.5-18.9,21.89a21.8,21.8,0,0,1-8,5.27,12.08,12.08,0,0,1-7.38.58,10.26,10.26,0,0,1-5.64-4.19q-2.32-3.27-2.82-9.22T206.53,115.16ZM252.8,76q-1.67,3.11-7.55,4.3a26,26,0,0,1-11.52-.17,18.42,18.42,0,0,1-7.8-4q-3-2.7-1.32-5.68c1.1-1.9,3.53-3.28,7.29-4.12a27.84,27.84,0,0,1,11.78,0A15.06,15.06,0,0,1,251.55,70C253.49,71.84,253.9,73.83,252.8,76Z"/><path class="cls-1" d="M285.63,108.63l-.17.11a30.31,30.31,0,0,1-10.78-1.32q-6.63-1.77-5.63-4.06.17-.12,5.14-4.93t9-9.46q4.06-4.64,2.74-5.1-5-1.71-12.44,5.62a51.12,51.12,0,0,0-11.6,17.65q-4.32,10.08-3.65,16.79t6,7.39q6.79.69,16.5-4.53a50.74,50.74,0,0,0,16.5-14.15c1.76-2.29,2.92-3.48,3.48-3.55.33-.08.5.34.5,1.26q0,1.71-2.49,4.7a71,71,0,0,1-18.9,15.87,43.81,43.81,0,0,1-22.23,6.36,18.13,18.13,0,0,1-12.35-4.41,17.75,17.75,0,0,1-6.05-11.12q-1-6.7,2.15-14.61a49.53,49.53,0,0,1,5.39-9,43.72,43.72,0,0,1,7-7.39,75.51,75.51,0,0,1,7.79-5.67,44.47,44.47,0,0,1,8-4.07,51.15,51.15,0,0,1,7.38-2.24,21.39,21.39,0,0,1,6.22-.51,8.68,8.68,0,0,1,4.23,1.26,13.31,13.31,0,0,1,4.64,5.1q1.32,2.8.08,9T285.63,108.63Z"/><path class="cls-1" d="M329.08,114.7c-.23.39-.72,1.43-1.5,3.15s-1.35,3-1.74,3.79-1,2-2,3.61a41.47,41.47,0,0,1-2.4,3.72c-.67.88-1.55,1.93-2.66,3.15a15.09,15.09,0,0,1-3.23,2.81,16.75,16.75,0,0,1-3.73,1.66,14.11,14.11,0,0,1-4.31.69,16.07,16.07,0,0,1-11.36-4.41,18.07,18.07,0,0,1-5.64-11.12,29,29,0,0,1,2.24-14.61,38.47,38.47,0,0,1,9.7-13.3,45.86,45.86,0,0,1,13.76-8.65A80.53,80.53,0,0,1,330.32,81a58,58,0,0,1,12.35-1.2,120.58,120.58,0,0,1,17.17,1.54c5.14.88,8,2,8.54,3.39q1,2.63-2.24,5.67a16,16,0,0,1-6.55,4c-.11,0-.47-.36-1.08-1.09s-1.47-1.66-2.57-2.8A45.07,45.07,0,0,0,352.21,87a19.7,19.7,0,0,0-5.14-3,18.11,18.11,0,0,0-6.22-1.38q-17.09-.69-27.69,24.53a67.8,67.8,0,0,0-3.9,11.92q-1.08,5.16-.25,8.19a3.65,3.65,0,0,0,3.81,3c2.66,0,4.81-1.3,6.47-3.9s4.37-8.21,8.13-16.85L334.88,92l1.82-4.81q4-.35,12.19,2.75t7.22,5.5l-.83,1.26c-.56.84-1.14,1.79-1.74,2.86s-1.39,2.49-2.33,4.24-1.79,3.58-2.57,5.45-1.6,4-2.48,6.47A63.15,63.15,0,0,0,344,123c-.77,3.67-.39,5.5,1.16,5.5a7.54,7.54,0,0,0,2.82-1.26q6.3-4.12,14.26-14.55,2.65-3.56,3.32-3.55c.33,0,.5.42.5,1.26q.33,1.49-2.33,4.7Q354.28,126.51,348,131.2q-9.28,7-15.26,5.28c-2.87-.77-4.67-3.36-5.39-7.8A26.56,26.56,0,0,1,329.08,114.7Z"/><path class="cls-1" d="M299.93,50c.24,0,.35.37.34,1.1a12.85,12.85,0,0,1-.45,2.83,26.92,26.92,0,0,1-1.23,3.68,20.33,20.33,0,0,1-2,3.67,10.93,10.93,0,0,1-2.74,2.84,5.87,5.87,0,0,1-3.47,1.1,6.87,6.87,0,0,1-3.24-.93,6.57,6.57,0,0,1-2.72-2.82,15.57,15.57,0,0,1-1.15-4.34,21.17,21.17,0,0,1-.26-3.58l-.16-.06a.3.3,0,0,1-.13,0l-1,1.76c-1.2,2.21-2.37,4.17-3.53,5.89a15.1,15.1,0,0,1-3.87,4.06,9.09,9.09,0,0,1-5.29,1.49,7.61,7.61,0,0,1-4.9-1.48,7.75,7.75,0,0,1-2.6-3.88,13.27,13.27,0,0,1-.44-5.29,19.37,19.37,0,0,1,1.52-5.76,20.17,20.17,0,0,1,3.3-5.28,16.54,16.54,0,0,1,4.91-3.9,13.57,13.57,0,0,1,6.35-1.48,10.59,10.59,0,0,1,2.85.36,12.72,12.72,0,0,1,2.29.87c.67.33,1.27.66,1.78,1a5,5,0,0,1,.57.31,1.21,1.21,0,0,0,.39-.51,4.43,4.43,0,0,0,.16-.58.85.85,0,0,1,.06-.31c.66-2.66,1.45-5.3,2.34-7.92.32-.91.63-1.84.93-2.77a6.07,6.07,0,0,1,.56-1.35,5.07,5.07,0,0,1,1-1.26,1.82,1.82,0,0,1,1.31-.55c.92,0,1.48.56,1.68,1.69a16,16,0,0,1,0,4.51c-.22,1.89-.51,4-.9,6.36-.58,3.36-1,6.81-1.34,10.35a31.15,31.15,0,0,0,.48,9.6,1.12,1.12,0,0,0,1.18,1,3.77,3.77,0,0,0,2.56-1,10.71,10.71,0,0,0,2.1-2.59,18,18,0,0,0,1.48-3.15,17.39,17.39,0,0,0,.75-2.79,2.19,2.19,0,0,1,.14-.56A.41.41,0,0,1,299.93,50Zm-21.14,4.27c.47-.71.9-1.33,1.28-1.86.9-1.26,1.52-2.19,1.86-2.78a1.77,1.77,0,0,0,.35-1.34,2.54,2.54,0,0,0-.83-1l-.19-.18a10,10,0,0,0-1.62-1.26,3,3,0,0,0-1.59-.45c-1.53,0-3.27,1.16-5.19,3.48a16.07,16.07,0,0,0-3.52,8.32,3.71,3.71,0,0,1,0,.47,10.61,10.61,0,0,0,.13,1.1,2.15,2.15,0,0,0,.38.94,1.05,1.05,0,0,0,.9.39,4.1,4.1,0,0,0,1.06-.18,10.27,10.27,0,0,0,4.1-2.32A19,19,0,0,0,278.79,54.24Z"/><path class="cls-1" d="M360.29,30.12A3.08,3.08,0,0,1,361.94,34a12.77,12.77,0,0,1-3.62,5.22,37.52,37.52,0,0,1-7.13,5.24,43.9,43.9,0,0,1-8.9,3.93,16.6,16.6,0,0,1-2.84.65c-.76.08-1.38.13-1.87.15a3.82,3.82,0,0,0-1.43.21,1.76,1.76,0,0,0-.82,1.09,74.23,74.23,0,0,1-3.79,8.67,23.84,23.84,0,0,1-3.4,5,9,9,0,0,1-3.15,2.3,8.36,8.36,0,0,1-3.05.6,6.22,6.22,0,0,1-3.33-.78,5.84,5.84,0,0,1-1.94-1.92,8.29,8.29,0,0,1-1-2.35,18.78,18.78,0,0,1-.43-2.2c-.11-.9-.27-1.39-.48-1.48l-.45.75c-.49.83-1,1.69-1.64,2.57a17,17,0,0,1-2,2.47A9.74,9.74,0,0,1,308.09,66a7.91,7.91,0,0,1-8-.81,8.08,8.08,0,0,1-2.48-4,14.92,14.92,0,0,1-.44-5.46,21.68,21.68,0,0,1,1.44-6,21.43,21.43,0,0,1,3.14-5.48,16.56,16.56,0,0,1,4.63-4,11.55,11.55,0,0,1,5.9-1.54,8.79,8.79,0,0,1,3.07.51,11.54,11.54,0,0,1,2.36,1.13,17.63,17.63,0,0,1,2.06,1.62c.24-.22.45-.43.64-.62a11.28,11.28,0,0,1,1.3-1.16,1.87,1.87,0,0,1,1.14-.39c.83,0,1.36.52,1.57,1.58a15.5,15.5,0,0,1,.14,4.05c-.11,1.64-.3,3.4-.56,5.26q-.25,2.2-.45,4.26a33,33,0,0,0-.14,3.73,7,7,0,0,0,.5,2.66,1.56,1.56,0,0,0,1.53,1,3,3,0,0,0,2.26-1.57A21.3,21.3,0,0,0,329.82,57c.67-1.44,1.24-2.84,1.73-4.19s.85-2.38,1.06-3.1c0-.12.09-.23.13-.32a2,2,0,0,0-1-.41,5.05,5.05,0,0,1-1.69-.67,2.58,2.58,0,0,1,.2-4.32,4.81,4.81,0,0,1,2.89-1,3.23,3.23,0,0,1,2,.7,3.1,3.1,0,0,1,1,2.36,2.91,2.91,0,0,0,.2,1c.12.25.41.37.85.37a4,4,0,0,0,.71-.07,40,40,0,0,0,11.12-3.89,29.54,29.54,0,0,0,7.19-5.25,11.51,11.51,0,0,0,3.06-4.66c.32-1.29-.12-1.94-1.32-1.94a2.17,2.17,0,0,0-1.52.67A7.44,7.44,0,0,0,355.2,34c-.39.68-.76,1.38-1.13,2.11a24.61,24.61,0,0,1-1.24,2.34c-.41.66-.85,1-1.32,1-.72,0-1.1-.18-1.14-.52a4.27,4.27,0,0,1,.34-1.61,19.74,19.74,0,0,0,.59-2.45,13.31,13.31,0,0,0,.12-3.47,5.44,5.44,0,0,0-.87-2.49,2,2,0,0,0-1.6-1,2.71,2.71,0,0,0-2.48,1.34,7.41,7.41,0,0,0-1,3.41,18.16,18.16,0,0,0,.22,4.31,19,19,0,0,0,1.14,4.14,1.89,1.89,0,0,0,.16.36,3,3,0,0,1,.25.75c.05.24-.08.44-.38.6a1.32,1.32,0,0,1-.42.07,1.19,1.19,0,0,1-.81-.31,3,3,0,0,1-.6-.64Q342,36.73,342.14,33a8,8,0,0,1,2.29-5.69,6.55,6.55,0,0,1,4.55-2,4.65,4.65,0,0,1,2.92.83,5.57,5.57,0,0,1,1.61,2,15.77,15.77,0,0,1,.89,2.19c.1.26.2.5.28.72a4.53,4.53,0,0,0,.64-.36,15.28,15.28,0,0,1,1.46-.73,4.26,4.26,0,0,1,1.65-.33A4,4,0,0,1,360.29,30.12ZM307.43,60.53a3.93,3.93,0,0,0,2.31-1.2,21.35,21.35,0,0,0,2.8-3.1,33.24,33.24,0,0,0,2.59-4,19.36,19.36,0,0,0,1.72-4,5.64,5.64,0,0,0,.18-3.1q-.37-1.2-2-1.2a5.45,5.45,0,0,0-2.24.76,12.56,12.56,0,0,0-3,2.38A15.68,15.68,0,0,0,307,51.23a18.34,18.34,0,0,0-1.56,6v.23a7.43,7.43,0,0,0,.12,1.18,2.94,2.94,0,0,0,.52,1.28A1.57,1.57,0,0,0,307.43,60.53ZM333.25,47.3c.41,0,.67-.09.8-.29a1.72,1.72,0,0,0,.26-.66,2.09,2.09,0,0,1,.16-.44,3.5,3.5,0,0,0-.34-1,1,1,0,0,0-1-.46,2.19,2.19,0,0,0-1.44.44,1.4,1.4,0,0,0-.54,1,1.22,1.22,0,0,0,.46,1A2.44,2.44,0,0,0,333.25,47.3Z"/><path class="cls-1" d="M14.69,33.93a7.89,7.89,0,0,1-.12-1.32,5.78,5.78,0,0,1,.08-1,4.4,4.4,0,0,0,0-.79,12.76,12.76,0,0,1,.38-1.67,8.89,8.89,0,0,1,.71-1.76A10.22,10.22,0,0,1,17.36,25,10.85,10.85,0,0,1,18.5,24q.57-.46,1.23-.93a10,10,0,0,1,1.58-.88,4.85,4.85,0,0,1,1.82-.38,2.08,2.08,0,0,1,1.17.36,2.2,2.2,0,0,1,.82.89,2,2,0,0,1,.09,1.6,3.5,3.5,0,0,1-.79,1.16,5.9,5.9,0,0,1-1.4.94,6.2,6.2,0,0,0-2,1.83,8.27,8.27,0,0,0-1.16,2.21,14.48,14.48,0,0,0-.62,2.68,7.24,7.24,0,0,0,.84,5A10.23,10.23,0,0,0,23,41.63a14.23,14.23,0,0,0,4.57,2.11,16.32,16.32,0,0,0,8.21-.06,26.32,26.32,0,0,0,8.76-4,36.82,36.82,0,0,0,8-7.61,41.43,41.43,0,0,0,6.11-10.9,35.63,35.63,0,0,0,2.48-9.84,13.19,13.19,0,0,0-.6-5.52A5.06,5.06,0,0,0,57.62,2.9a4.68,4.68,0,0,0-3,.39,15.13,15.13,0,0,0-3.43,2.16,33.49,33.49,0,0,0-3.58,3.38q-1.81,2-3.46,4T41,17c-1,1.36-1.81,2.57-2.5,3.61Q37.2,23.3,35.74,27a92.79,92.79,0,0,0-3,9.19A9.57,9.57,0,0,1,32,38.27a2.48,2.48,0,0,1-1.14,1.1,1.73,1.73,0,0,1-1.72-.22,4,4,0,0,1-1.31-1.26,5.85,5.85,0,0,1-.86-2.38,16.65,16.65,0,0,1-.09-3.83A30.68,30.68,0,0,1,27.94,26a70.18,70.18,0,0,1,2.77-7.81q1.84-4.47,4.86-10.3a24,24,0,0,1,2.35-4A9.44,9.44,0,0,1,39,2.54a10.27,10.27,0,0,1,1.23-1.11A3.71,3.71,0,0,1,41.51.79a1.93,1.93,0,0,1,1.28.07,3.27,3.27,0,0,1,2.31,2.2,7.87,7.87,0,0,1-.18,3.77c.86-1,1.78-1.89,2.76-2.8a28.86,28.86,0,0,1,2.79-2.09A10.6,10.6,0,0,1,52.71.74,13,13,0,0,1,55.33.09a10.86,10.86,0,0,1,3.43.1,9.83,9.83,0,0,1,2,.53,11.71,11.71,0,0,1,1.88.9,8.82,8.82,0,0,1,1.93,1.54,17.62,17.62,0,0,1,1.39,2A10.25,10.25,0,0,1,67,7.61a14.16,14.16,0,0,1,.36,1.73c.09.64.15,1.3.19,2a27.16,27.16,0,0,1-.17,4.59,41.08,41.08,0,0,1-1.13,5.73,37.3,37.3,0,0,1-2.68,7.2A34.57,34.57,0,0,1,60,34.57a29.78,29.78,0,0,1-4.41,4.54,30.12,30.12,0,0,1-4.82,3.27,31.26,31.26,0,0,1-6.61,2.74,29.8,29.8,0,0,1-4.26,1c-1.39.22-2.74.36-4,.44-.86,0-1.68.07-2.48.06a15.48,15.48,0,0,1-2.23-.16A27.35,27.35,0,0,1,24.55,45a17.78,17.78,0,0,1-5.56-3,12.27,12.27,0,0,1-1.45-1.43,16.83,16.83,0,0,1-1.2-1.58A10.24,10.24,0,0,1,14.69,33.93Z"/><path class="cls-1" d="M89.54,30.5a25.1,25.1,0,0,1-1.29,3,27.9,27.9,0,0,1-1.59,3,22.92,22.92,0,0,1-2.26,3.13c-.43.45-1,1-1.58,1.59a12.27,12.27,0,0,1-2.21,1.7,13.91,13.91,0,0,1-2.84,1.3,8.64,8.64,0,0,1-3.36.4,11.08,11.08,0,0,1-3-.54,14.68,14.68,0,0,1-2.55-1.22,6.79,6.79,0,0,1-2.27-2.31,9.05,9.05,0,0,1-1.2-3.16,14.88,14.88,0,0,1-.22-3.93A18.18,18.18,0,0,1,66,29.15a25,25,0,0,1,1.85-4.33,14.14,14.14,0,0,1,3-3.95A9.47,9.47,0,0,1,74,18.93a8.64,8.64,0,0,1,3.27-.46,27.54,27.54,0,0,1,3.19.36,2.84,2.84,0,0,1,.29-.88,5.52,5.52,0,0,1,1.36-1.72,7.93,7.93,0,0,0,.83-.55,5.62,5.62,0,0,1,.95-.44A4.48,4.48,0,0,1,85.17,15a3.35,3.35,0,0,1,1.37.07,5.7,5.7,0,0,1,1.31.43,5.49,5.49,0,0,1,1.33.86,4.29,4.29,0,0,1,.92,1.16A6,6,0,0,1,90.78,19a15.83,15.83,0,0,1,.55,2.19,5.41,5.41,0,0,1,0,2.15,21.77,21.77,0,0,1-.52,2.92A39,39,0,0,1,89.54,30.5ZM88.35,19.82a5.71,5.71,0,0,0-.56-1.54,4.24,4.24,0,0,0-.69-.9,2.52,2.52,0,0,0-.89-.52,1.47,1.47,0,0,0-1.52.33A3.46,3.46,0,0,0,84,18.63a8.69,8.69,0,0,0-.23,1.91c0,.69,0,1.28-.08,1.76a2.45,2.45,0,0,1-.48,1.28,2.09,2.09,0,0,1-.78.58,1.73,1.73,0,0,1-1.11.13,1.78,1.78,0,0,1-1-.48A1.74,1.74,0,0,1,79.8,23a3.41,3.41,0,0,1-.1-1,4.71,4.71,0,0,1,.08-.79,13.27,13.27,0,0,0-1.54,1.55c-.53.63-1,1.3-1.55,2s-1,1.41-1.38,2.08a11.79,11.79,0,0,0-.93,1.74A29.14,29.14,0,0,0,73,31.91a27.14,27.14,0,0,0-1,3.57A10,10,0,0,0,71.74,39a5,5,0,0,0,.76,2.1,3.61,3.61,0,0,0,1.18,1.12,3.43,3.43,0,0,0,1,.38,5.73,5.73,0,0,0,2.89-.38A9.41,9.41,0,0,0,80.75,40a20.16,20.16,0,0,0,3.18-4.33,41,41,0,0,0,2.95-6.83,27.73,27.73,0,0,0,1.45-5.52A12.46,12.46,0,0,0,88.35,19.82Z"/><path class="cls-1" d="M101.68,41.07a5.28,5.28,0,0,0,3.1-.39,14.16,14.16,0,0,0,2.61-1.5,15.74,15.74,0,0,0,2.53-2.29,20.67,20.67,0,0,0,1.69-2.64c.49-.91.92-1.68,1.28-2.33a4.33,4.33,0,0,1,.55-.89,2.91,2.91,0,0,1,.57-.64.65.65,0,0,1,.67-.14.62.62,0,0,1,.42.51,2.41,2.41,0,0,1-.32,1.2l-1.23,2.51c-.41.83-.83,1.59-1.24,2.29a17.07,17.07,0,0,1-3,3.31,15.37,15.37,0,0,1-3.47,2.23,8.49,8.49,0,0,1-4.58.79,10.72,10.72,0,0,1-3-.54,14.68,14.68,0,0,1-2.55-1.22A6.7,6.7,0,0,1,93.44,39a8.48,8.48,0,0,1-1.16-3.16,14,14,0,0,1-.09-3.9,25.11,25.11,0,0,1,.87-4.27,30.52,30.52,0,0,1,1.64-4.35,18.36,18.36,0,0,1,2.56-4.05,14.51,14.51,0,0,1,3.17-2.86,11.75,11.75,0,0,1,3.43-1.55,7.68,7.68,0,0,1,3.28-.18,4.4,4.4,0,0,1,2.11,1,4.24,4.24,0,0,1,1.17,1.76,4.84,4.84,0,0,1-.13,3,6.32,6.32,0,0,1-.63,1,2.49,2.49,0,0,1-1.15.93,2.18,2.18,0,0,1-2,0,1.4,1.4,0,0,1-.54-.54,1.55,1.55,0,0,1,.28-1.16,3.4,3.4,0,0,1,.39-.6c.75-.85,1.29-1.49,1.61-1.91a1.31,1.31,0,0,0,.18-1.34c-.21-.6-.63-.56-1.28.15a18.76,18.76,0,0,0-2.1,2.91q-1.14,1.84-2.22,4c-.72,1.4-1.26,2.49-1.62,3.28-.39,1-.82,2.16-1.26,3.4A33.66,33.66,0,0,0,98.9,34.2a9.09,9.09,0,0,0-.21,3.85,4,4,0,0,0,1,2.05A3.93,3.93,0,0,0,101.68,41.07Z"/><path class="cls-1" d="M135.58,29.09a.72.72,0,0,1,.46.51,1.93,1.93,0,0,1-.28,1.2l-1.23,2.5a19.27,19.27,0,0,1-1.32,2.3,24.21,24.21,0,0,1-3,4.25,17.67,17.67,0,0,1-3.6,2.92A8.57,8.57,0,0,1,121.78,44a10.69,10.69,0,0,1-2.93-.42,9.83,9.83,0,0,1-2.59-1.25,7.62,7.62,0,0,1-2.42-2.69,9.05,9.05,0,0,1-1.2-3.16,15.48,15.48,0,0,1-.23-4,25.91,25.91,0,0,1,.7-4.37,20.64,20.64,0,0,1,1.64-4.39,15.84,15.84,0,0,1,5.36-6.67,8.26,8.26,0,0,1,6.25-1.42,6.69,6.69,0,0,1,2.55,1.15,6.28,6.28,0,0,1,1.7,2.05,6.88,6.88,0,0,1,.66,3.4,9.35,9.35,0,0,1-1.12,4.58,7.3,7.3,0,0,1-1.24,1.57A6.92,6.92,0,0,1,127,29.75a9.63,9.63,0,0,1-2.79.72,15.21,15.21,0,0,1-3.68,0L119.89,33a15.3,15.3,0,0,0-.54,5,5.43,5.43,0,0,0,.88,2.6,2.71,2.71,0,0,0,1.86,1.12,4.63,4.63,0,0,0,3.21-.68A14.4,14.4,0,0,0,128.09,39a19.61,19.61,0,0,0,2.73-3.23,26.61,26.61,0,0,0,1.73-2.64l1.33-2.33a3.43,3.43,0,0,1,.55-.89,3,3,0,0,1,.52-.64A.6.6,0,0,1,135.58,29.09Zm-14.63.1a10.1,10.1,0,0,0,2.19-.7L124,28a6.85,6.85,0,0,0,2.38-2.53,11.07,11.07,0,0,0,.87-2,22,22,0,0,0,.53-2.79,5.31,5.31,0,0,0,0-1.61,1.72,1.72,0,0,0-.39-.91,1,1,0,0,0-1.54.12,8.51,8.51,0,0,0-1.54,2.27,31.92,31.92,0,0,0-1.36,3.16l-1.09,2.85c-.1.24-.22.6-.36,1.06S121.15,28.6,121,29.19Z"/><path class="cls-1" d="M147.53,42.39a1.9,1.9,0,0,0,1.15-.1,1.54,1.54,0,0,0,.54-.42,1.09,1.09,0,0,1,.24-.16,1.73,1.73,0,0,1,.59-.17.81.81,0,0,1,.83,1,3,3,0,0,1-1,2.2A7.22,7.22,0,0,1,148,46a9.82,9.82,0,0,1-2.71.51,11.6,11.6,0,0,1-3.56-.16,8,8,0,0,1-2.58-1,6.09,6.09,0,0,1-1.72-1.62,7.19,7.19,0,0,1-1-1.92,8.41,8.41,0,0,1-.31-4,23.91,23.91,0,0,1,2.21-7.14c.44-.86.68-1.36.73-1.51,1.13-2.26,2-4.07,2.65-5.45s1.1-2.42,1.41-3.15c.34-.88.57-1.49.66-1.83A7,7,0,0,0,144,18a1.76,1.76,0,0,0-.1-1,3.05,3.05,0,0,0-.83-1.1,5.41,5.41,0,0,0-2-1,25.52,25.52,0,0,1-.76,4.16q-.6,2.28-1.45,4.59c-.57,1.53-1.16,3-1.77,4.36s-1.14,2.47-1.61,3.31a2.89,2.89,0,0,1-.88,1,.88.88,0,0,1-.77.11.47.47,0,0,1-.33-.51,2.54,2.54,0,0,1,.18-.77,4.3,4.3,0,0,1,.46-.95c.2-.4.48-1,.83-1.88s.74-1.81,1.17-2.89.83-2.2,1.22-3.4.71-2.31,1-3.38a25.94,25.94,0,0,0,.52-2.86,2.46,2.46,0,0,0-.23-1.74,4.24,4.24,0,0,1-.59-1.47c-.08-.47.18-.92.78-1.33a.87.87,0,0,1,.89-.23,1.89,1.89,0,0,1,.66.43,2.22,2.22,0,0,1,.56.83.78.78,0,0,1,.11.38c0,.17,0,.32,0,.47.35,0,1.08.12,2.2.27a18.93,18.93,0,0,1,3.51.84,17.78,17.78,0,0,1,2.06.89,5.6,5.6,0,0,1,1.7,1.3,4.43,4.43,0,0,1,1,1.85,5.26,5.26,0,0,1-.07,2.51,2.48,2.48,0,0,1-.37,1,16.19,16.19,0,0,1-1.49,2.52c-.37.5-.81,1.13-1.3,1.9s-1,1.57-1.54,2.41a27.58,27.58,0,0,0-1.43,2.62,12.15,12.15,0,0,0-.93,2.53,11.65,11.65,0,0,0-.55,4,6.63,6.63,0,0,0,.85,2.93A3.53,3.53,0,0,0,147.53,42.39Z"/><path class="cls-1" d="M154.5,21.53a18.54,18.54,0,0,1,2-3.48,14.59,14.59,0,0,1,2.18-2.34,3.7,3.7,0,0,1,2.68-1,2.83,2.83,0,0,1,2.19,1,3.64,3.64,0,0,1,.64,2.26,8.77,8.77,0,0,1-.6,3,19.73,19.73,0,0,1-1.53,3.28c-.41.74-.88,1.59-1.39,2.54s-1,2-1.55,3-1,2.06-1.41,3.09a17.19,17.19,0,0,0-.92,2.77,5.42,5.42,0,0,0-.14,2,1.12,1.12,0,0,0,1,1,3,3,0,0,0,2.34-1,17,17,0,0,0,2.37-2.75c.76-1.09,1.47-2.21,2.12-3.34s1.13-2,1.44-2.59a3.93,3.93,0,0,1,.55-.89,3.3,3.3,0,0,1,.52-.63.58.58,0,0,1,.63-.15.71.71,0,0,1,.46.52,2,2,0,0,1-.27,1.19c-.62,1.33-1.35,2.76-2.2,4.31a26.49,26.49,0,0,1-2.93,4.28,15.16,15.16,0,0,1-3.59,3.17,6.4,6.4,0,0,1-4.18,1,4.39,4.39,0,0,1-3.82-2.58,8.16,8.16,0,0,1-.69-2.43,12.69,12.69,0,0,1,.1-3.59,29,29,0,0,1,1.26-5A58.73,58.73,0,0,1,154.5,21.53Zm9-7.24a2.15,2.15,0,0,1-1.23-.43,3.1,3.1,0,0,1-.82-1,3.82,3.82,0,0,1-.37-1.91A5.76,5.76,0,0,1,162.5,7a3.39,3.39,0,0,1,3.45-1,4,4,0,0,1,2.7,1.64,2.38,2.38,0,0,1-.15,2.73,27.71,27.71,0,0,1-2.23,3A2.68,2.68,0,0,1,163.51,14.29Z"/><path class="cls-1" d="M196.4,25.72a.64.64,0,0,1,.42.51,2.36,2.36,0,0,1-.32,1.2c-.61,1.33-1.26,2.6-1.93,3.83a15,15,0,0,1-2.3,3.21,9.1,9.1,0,0,1-3,2.1,7.6,7.6,0,0,1-3.91.5,4.9,4.9,0,0,1-2.61-.78,5.38,5.38,0,0,1-1.71-2.16,8.91,8.91,0,0,1-.54-4.31c-.51.94-1.1,1.91-1.76,2.93a19.9,19.9,0,0,1-2.11,2.73,9.86,9.86,0,0,1-2.34,1.88,3.26,3.26,0,0,1-2.41.39,7.19,7.19,0,0,1-4.38-2.48,8,8,0,0,1-1.61-4.42,15.34,15.34,0,0,1,.79-5.7,34.93,34.93,0,0,1,2.77-6.39,22.48,22.48,0,0,1,3-4.07,16.87,16.87,0,0,1,3.43-2.87,12.92,12.92,0,0,1,3.55-1.56,7.14,7.14,0,0,1,3.33-.11,7.74,7.74,0,0,1,2.58.93,8.3,8.3,0,0,1,1.83,1.4,11,11,0,0,1,2-1.87,3.62,3.62,0,0,1,2.35-.74,2.87,2.87,0,0,1,2.2,1,3.5,3.5,0,0,1,.59,2.26,10,10,0,0,1-.64,3,21.48,21.48,0,0,1-1.53,3.28l-2.2,4.2a50.77,50.77,0,0,0-2.33,5A20.19,20.19,0,0,0,186.41,33c-.19,1.23.15,1.91,1,2.06a2.9,2.9,0,0,0,2.19-.66,11,11,0,0,0,2-2,20,20,0,0,0,1.73-2.64c.52-.93.93-1.69,1.24-2.28a3.85,3.85,0,0,1,.55-.89,2.7,2.7,0,0,1,.57-.64A.66.66,0,0,1,196.4,25.72Zm-14.48-2c.05-.1.12-.24.23-.44s.2-.42.3-.66a2.47,2.47,0,0,0,.39-.74c.36-.59.73-1.25,1.09-2s.69-1.41,1-2.09.57-1.33.8-1.91a5.63,5.63,0,0,0,.38-1.46,1.22,1.22,0,0,0-.11-.56.48.48,0,0,1-.1-.21,1.83,1.83,0,0,0-2.37-.3,11.87,11.87,0,0,0-2.87,2.27,27,27,0,0,0-2.88,3.6q-1.38,2-2.31,3.74c-.68,1.24-1.34,2.62-2,4.16a38.16,38.16,0,0,0-1.55,4.31,11.88,11.88,0,0,0-.54,3.4c0,.93.38,1.4,1.06,1.41a3.59,3.59,0,0,0,2.4-1.5,29.7,29.7,0,0,0,2.75-3.59c.92-1.38,1.77-2.78,2.55-4.18S181.5,24.52,181.92,23.73Z"/></g></g></g></g></svg>