<svg xmlns="http://www.w3.org/2000/svg" viewBox="0 0 82.89 70.39"><defs><style>.cls-1{fill:#fff;}</style></defs><title>Ativo 3</title><g id="Camada_2" data-name="Camada 2"><g id="Camada_1-2" data-name="Camada 1"><g id="Header"><g id="Mini_logo" data-name="Mini logo"><path class="cls-1" d="M15.63,24.41q-5.13,8-6.23,13.93t2.76,8.75Q16,49.91,26.59,47c.73-.22-.17,1.24-2.72,4.38-1.81,2.24-2.94,3.37-3.41,3.37A21.4,21.4,0,0,1,8.19,50.88,18.72,18.72,0,0,1,.6,40.65Q-1.35,34.26,3.06,26,9.2,15.15,25.38,7.57A80.58,80.58,0,0,1,60,0q12.87,0,19.1,5.34T81.37,21q-2.81,7.4-10.55,13.34A52,52,0,0,1,53.43,43q8.45.59,12.86,3.7t2,9.59a16.93,16.93,0,0,1-5.42,7.12,27.61,27.61,0,0,1-8.6,4.71,46.08,46.08,0,0,1-9.75,2.1,20.06,20.06,0,0,1-8.9-.8A11.6,11.6,0,0,1,29.1,64q-2.61-4.29-.6-10.69,1.3-4.55,8-23.9t8-24q.11-.25,3.87.12A36.46,36.46,0,0,1,55.69,7C58,7.72,59,8.61,58.55,9.68c-.06.11-.63,1.35-1.71,3.7s-2.42,5.39-4.07,9.09-3.16,7.32-4.57,10.86q-2.41,6-3.72,9.68a26.15,26.15,0,0,0,14.68-7.33A37,37,0,0,0,68.91,21q3.42-9.69.8-13.68T58,3.28q-16,0-25.88,5.43A45.07,45.07,0,0,0,15.63,24.41ZM55.84,56.3a10.87,10.87,0,0,0,.75-6,4.12,4.12,0,0,0-2.51-3.07,15.72,15.72,0,0,0-4.82-1,30.13,30.13,0,0,0-6.09.21,88.87,88.87,0,0,0-3.11,10.1,32.59,32.59,0,0,1-.91,3.32c-.4,1.26-.72,2.29-.95,3.07a18.29,18.29,0,0,0-.55,2.36A2.44,2.44,0,0,0,37.8,67a1.67,1.67,0,0,0,1.35.63,16.7,16.7,0,0,0,9.65-2.53A15.89,15.89,0,0,0,55.84,56.3Z"/></g></g></g></g></svg>